<svg width="875" height="874" viewBox="0 0 875 874" fill="none" xmlns="http://www.w3.org/2000/svg">
<rect width="874" height="874" fill="white"/>
<ellipse cx="436.011" cy="436.509" rx="262.247" ry="262.509" fill="#FFC400"/>
<ellipse cx="662.256" cy="243.255" rx="131.124" ry="131.255" fill="#FFC400"/>
<ellipse cx="833.604" cy="133.5" rx="40.4595" ry="40.5" fill="#FFC400"/>
<path d="M210.521 422V393.803L274.558 320.015H211.575V287.074H324.628V315.271L261.909 389.059H327.527V422H210.521ZM251.895 272.58L209.467 239.376L234.765 213.813L269.288 244.91L303.546 214.077L328.581 239.376L286.153 272.58H251.895ZM351.354 422V250.707H393.518V422H351.354ZM488.853 423.845C478.663 423.845 469.616 422.176 461.71 418.838C453.804 415.5 447.567 410.141 442.999 402.763C438.607 395.384 436.411 385.633 436.411 373.511V322.914H414.538V291.554H437.465V254.397H479.63V291.554H515.469V323.177H479.893V372.193C479.893 378.869 481.474 383.437 484.637 385.897C487.975 388.356 491.928 389.586 496.495 389.586C499.306 389.586 502.381 389.323 505.719 388.796C509.233 388.093 511.956 387.127 513.888 385.897L521.003 416.993C516.611 419.453 511.516 421.209 505.719 422.264C500.097 423.318 494.475 423.845 488.853 423.845ZM636.192 435.703L619.589 415.675C611.332 420.77 601.055 423.318 588.757 423.318C572.418 423.318 559.681 419.101 550.545 410.668C541.41 402.06 536.842 390.816 536.842 376.937C536.842 364.288 540.707 354.537 548.437 347.685C556.167 340.658 567.411 337.144 582.169 337.144H614.582V332.928C614.582 327.833 612.298 324.056 607.731 321.596C603.163 318.961 596.663 317.643 588.23 317.643C581.729 317.643 575.668 318.434 570.046 320.015C564.6 321.42 559.33 323.616 554.235 326.603L543.957 296.034C550.633 292.345 558.1 289.709 566.357 288.128C574.614 286.371 582.871 285.493 591.128 285.493C611.508 285.493 627.495 289.885 639.09 298.669C650.686 307.278 656.483 318.873 656.483 333.455V393.539L668.869 408.56L636.192 435.703ZM595.345 390.64C602.021 390.64 606.94 388.532 610.102 384.316C613.265 379.923 614.846 375.531 614.846 371.139V363.76H595.345C589.899 363.76 585.77 364.902 582.959 367.186C580.324 369.47 579.006 372.633 579.006 376.673C579.006 381.065 580.5 384.491 583.486 386.951C586.648 389.41 590.601 390.64 595.345 390.64ZM575.053 280.749L559.242 254.397L622.488 214.868L641.199 247.281L575.053 280.749ZM146.164 624.271C132.812 624.271 120.514 622.162 109.27 617.946C98.2017 613.729 89.7689 609.162 83.9713 604.242L97.4112 576.045C101.803 579.383 108.04 582.545 116.122 585.532C124.203 588.519 132.46 590.012 140.893 590.012C147.218 590.012 151.873 589.046 154.86 587.113C157.847 585.181 159.34 582.545 159.34 579.207C159.34 576.221 158.198 574.025 155.914 572.619C153.63 571.214 150.204 570.16 145.637 569.457L132.987 567.349C118.054 564.889 106.547 560.233 98.4653 553.382C90.3838 546.354 86.343 536.955 86.343 525.184C86.343 517.63 88.1877 510.69 91.8771 504.366C95.7422 498.041 101.628 492.946 109.533 489.081C117.615 485.216 128.068 483.283 140.893 483.283C153.542 483.283 164.786 484.952 174.625 488.29C184.639 491.453 192.105 494.791 197.024 498.305L186.22 526.502C183.409 524.569 179.632 522.9 174.888 521.495C170.32 519.914 165.401 518.684 160.131 517.806C154.86 516.927 149.853 516.488 145.11 516.488C134.041 516.488 128.507 519.211 128.507 524.657C128.507 527.293 129.561 529.489 131.67 531.245C133.778 532.827 136.15 533.793 138.785 534.144L154.86 536.779C172.604 539.59 184.814 544.422 191.49 551.273C198.166 558.125 201.504 566.822 201.504 577.363C201.504 585.62 199.66 593.35 195.97 600.553C192.281 607.58 186.396 613.29 178.314 617.682C170.233 622.074 159.516 624.271 146.164 624.271ZM291.594 620.845C281.404 620.845 272.356 619.176 264.45 615.838C256.545 612.5 250.308 607.141 245.74 599.763C241.348 592.384 239.152 582.633 239.152 570.511V519.914H217.279V488.554H240.206V451.397H282.37V488.554H318.21V520.177H282.634V569.193C282.634 575.869 284.215 580.437 287.377 582.897C290.715 585.356 294.668 586.586 299.236 586.586C302.047 586.586 305.121 586.323 308.459 585.796C311.973 585.093 314.696 584.127 316.629 582.897L323.744 613.993C319.352 616.453 314.257 618.209 308.459 619.264C302.838 620.318 297.216 620.845 291.594 620.845ZM410.735 621.372C396.153 621.372 383.504 618.473 372.787 612.675C362.246 606.878 354.076 598.621 348.279 587.904C342.481 577.187 339.582 564.538 339.582 549.956C339.582 527.995 345.907 511.13 358.556 499.359C371.381 487.412 388.598 481.439 410.208 481.439C431.817 481.439 449.034 487.412 461.859 499.359C474.684 511.305 481.097 528.347 481.097 550.483C481.097 564.889 478.286 577.451 472.664 588.167C467.042 598.708 458.96 606.878 448.419 612.675C437.878 618.473 425.317 621.372 410.735 621.372ZM410.735 586.059C419.519 586.059 426.195 582.809 430.763 576.309C435.506 569.808 437.878 561.2 437.878 550.483C437.878 539.063 435.331 530.543 430.236 524.921C425.317 519.123 418.641 516.224 410.208 516.224C401.775 516.224 395.011 519.123 389.916 524.921C384.997 530.543 382.537 538.976 382.537 550.219C382.537 561.112 385.085 569.808 390.18 576.309C395.275 582.809 402.126 586.059 410.735 586.059ZM504.863 667.489V501.994C508.904 497.953 514.614 494.527 521.993 491.716C529.547 488.73 537.716 486.446 546.501 484.865C555.285 483.283 563.63 482.493 571.536 482.493C594.551 482.493 611.68 488.818 622.924 501.467C634.167 513.94 639.789 530.543 639.789 551.273C639.789 566.909 636.803 579.91 630.829 590.276C625.032 600.465 617.126 608.108 607.112 613.202C597.274 618.122 586.381 620.581 574.435 620.581C563.894 620.581 554.758 618.912 547.028 615.574V667.489H504.863ZM570.482 584.478C578.388 584.478 584.624 581.667 589.192 576.045C593.76 570.423 596.044 562.517 596.044 552.328C596.044 540.557 593.145 531.772 587.347 525.975C581.726 520.002 574.786 517.015 566.529 517.015C559.677 517.015 553.177 518.42 547.028 521.231V561.551C547.028 569.808 549.487 575.694 554.407 579.207C559.326 582.721 564.684 584.478 570.482 584.478ZM760.106 632.703L743.504 612.675C735.247 617.77 724.969 620.318 712.671 620.318C696.332 620.318 683.595 616.101 674.46 607.668C665.324 599.06 660.756 587.816 660.756 573.937C660.756 561.288 664.621 551.537 672.351 544.685C680.082 537.658 691.325 534.144 706.083 534.144H738.497V529.928C738.497 524.833 736.213 521.056 731.645 518.596C727.077 515.961 720.577 514.643 712.144 514.643C705.644 514.643 699.583 515.434 693.961 517.015C688.514 518.42 683.244 520.616 678.149 523.603L667.871 493.034C674.547 489.345 682.014 486.709 690.271 485.128C698.528 483.371 706.786 482.493 715.043 482.493C735.422 482.493 751.41 486.885 763.005 495.669C774.6 504.278 780.398 515.873 780.398 530.455V590.539L792.783 605.56L760.106 632.703ZM719.259 587.64C725.935 587.64 730.854 585.532 734.017 581.316C737.179 576.923 738.76 572.531 738.76 568.139V560.76H719.259C713.813 560.76 709.684 561.902 706.873 564.186C704.238 566.47 702.921 569.633 702.921 573.673C702.921 578.065 704.414 581.491 707.401 583.951C710.563 586.41 714.516 587.64 719.259 587.64Z" fill="black"/>
</svg>
